<svg width="831" height="592" viewBox="0 0 831 592" fill="none" xmlns="http://www.w3.org/2000/svg">
<path d="M401.874 459.088C459.257 438.403 462.158 303.666 403.689 123.561C344.988 304.867 372.854 434.413 401.874 459.088Z" fill="url(#paint0_linear_35_37)"/>
<path d="M173.173 15.4207C-48.2594 304.067 521.243 700.11 827.622 309.026C321.734 540.72 207.539 379.747 173.173 15.4207Z" fill="url(#paint1_linear_35_37)"/>
<path d="M172.966 15.7586C-48.4664 304.405 521.036 700.448 827.415 309.364C321.527 541.058 207.332 380.085 172.966 15.7586Z" fill="url(#paint2_linear_35_37)"/>
<path d="M36.3744 156.081C20.13 498.476 751.529 600.333 779.029 133.746C482.796 546.831 286.732 456.02 36.3744 156.081Z" fill="url(#paint3_linear_35_37)"/>
<path d="M3.21474 332.667C194.431 635.963 888.91 419.198 632.981 3.65561C624.104 484.92 399.861 488.029 3.21474 332.667Z" fill="url(#paint4_linear_35_37)"/>
<path d="M173.173 15.4207C-48.2594 304.067 521.243 700.11 827.622 309.026C321.734 540.72 207.539 379.747 173.173 15.4207Z" fill="url(#paint5_linear_35_37)"/>
<path d="M172.966 15.7586C-48.4664 304.405 521.036 700.448 827.415 309.364C321.527 541.058 207.332 380.085 172.966 15.7586Z" fill="url(#paint6_linear_35_37)"/>
<path d="M36.3744 156.081C20.13 498.476 751.529 600.333 779.029 133.746C482.796 546.831 286.732 456.02 36.3744 156.081Z" fill="url(#paint7_linear_35_37)"/>
<path d="M3.21474 332.667C194.431 635.963 888.91 419.198 632.981 3.65561C624.104 484.92 399.861 488.029 3.21474 332.667Z" fill="url(#paint8_linear_35_37)"/>
<defs>
<linearGradient id="paint0_linear_35_37" x1="347.515" y1="463.602" x2="322.834" y2="129.513" gradientUnits="userSpaceOnUse">
<stop stop-color="#616C78"/>
<stop offset="1" stop-color="#B3C7DE"/>
</linearGradient>
<linearGradient id="paint1_linear_35_37" x1="86.1814" y1="150.514" x2="686.598" y2="531.357" gradientUnits="userSpaceOnUse">
<stop stop-color="#616C78"/>
<stop offset="1" stop-color="#B3C7DE"/>
</linearGradient>
<linearGradient id="paint2_linear_35_37" x1="85.9743" y1="150.852" x2="686.391" y2="531.695" gradientUnits="userSpaceOnUse">
<stop stop-color="#616C78"/>
<stop offset="1" stop-color="#B3C7DE"/>
</linearGradient>
<linearGradient id="paint3_linear_35_37" x1="43.1356" y1="309.318" x2="786.114" y2="270.949" gradientUnits="userSpaceOnUse">
<stop stop-color="#616C78"/>
<stop offset="1" stop-color="#B3C7DE"/>
</linearGradient>
<linearGradient id="paint4_linear_35_37" x1="100.944" y1="462.555" x2="658.539" y2="37.156" gradientUnits="userSpaceOnUse">
<stop stop-color="#616C78"/>
<stop offset="1" stop-color="#B3C7DE"/>
</linearGradient>
<linearGradient id="paint5_linear_35_37" x1="86.1814" y1="150.514" x2="686.598" y2="531.357" gradientUnits="userSpaceOnUse">
<stop stop-color="#616C78"/>
<stop offset="1" stop-color="#B3C7DE"/>
</linearGradient>
<linearGradient id="paint6_linear_35_37" x1="85.9743" y1="150.852" x2="686.391" y2="531.695" gradientUnits="userSpaceOnUse">
<stop stop-color="#616C78"/>
<stop offset="1" stop-color="#B3C7DE"/>
</linearGradient>
<linearGradient id="paint7_linear_35_37" x1="43.1356" y1="309.318" x2="786.114" y2="270.949" gradientUnits="userSpaceOnUse">
<stop stop-color="#616C78"/>
<stop offset="1" stop-color="#B3C7DE"/>
</linearGradient>
<linearGradient id="paint8_linear_35_37" x1="100.944" y1="462.555" x2="658.539" y2="37.156" gradientUnits="userSpaceOnUse">
<stop stop-color="#616C78"/>
<stop offset="1" stop-color="#B3C7DE"/>
</linearGradient>
</defs>
</svg>
